<svg width="142" height="66" viewBox="0 0 142 66" fill="none" xmlns="http://www.w3.org/2000/svg">
<path d="M34.4567 13.9888C34.8553 12.7384 35.4219 11.6716 36.1487 10.7807C36.8794 9.89371 37.743 9.18645 38.7394 8.67066C39.7358 8.15096 40.7947 7.89307 41.9084 7.89307C43.53 7.89307 44.9093 8.3776 46.0542 9.34666C47.1952 10.3157 48.0705 11.5739 48.6879 13.1135H49.0865V8.08844H54.7875V28.0168H49.0865V22.9917H48.6879C48.0783 24.5352 47.1991 25.7895 46.0542 26.7585C44.9132 27.7276 43.53 28.2121 41.9084 28.2121C40.7908 28.2121 39.7436 27.9542 38.7589 27.4345C37.7742 26.9148 36.9146 26.2115 36.1682 25.3245C35.4258 24.4375 34.8514 23.3629 34.4528 22.1164C34.0543 20.866 33.855 19.5101 33.855 18.0526C33.855 16.5951 34.0543 15.2353 34.4528 13.9888H34.4567ZM40.0562 20.1079C40.2828 20.7331 40.6033 21.2763 41.0135 21.7413C41.4277 22.2063 41.9162 22.5736 42.4906 22.8393C43.0611 23.105 43.6785 23.2379 44.3427 23.2379C45.007 23.2379 45.6596 23.105 46.2144 22.8393C46.7732 22.5736 47.2499 22.2141 47.6485 21.7647C48.0471 21.3115 48.3714 20.7722 48.6254 20.1509C48.8794 19.5257 49.0044 18.8302 49.0044 18.0565C49.0044 17.2828 48.8794 16.5912 48.6254 15.9621C48.3714 15.3369 48.0471 14.8015 47.6485 14.3483C47.2499 13.895 46.7732 13.5394 46.2144 13.2737C45.6557 13.008 45.0305 12.8751 44.3427 12.8751C43.655 12.8751 43.0611 13.008 42.4906 13.2737C41.9201 13.5394 41.4277 13.9067 41.0135 14.3717C40.5993 14.8367 40.2828 15.3799 40.0562 16.0051C39.8296 16.6303 39.7162 17.3141 39.7162 18.0604C39.7162 18.8067 39.8296 19.4867 40.0562 20.1158V20.1079Z" fill="#FAF8F5" style="fill:#FAF8F5;fill:color(display-p3 0.9804 0.9725 0.9608);fill-opacity:1;"/>
<path d="M57.8936 0H63.7548V28.0208H57.8936V0Z" fill="#FAF8F5" style="fill:#FAF8F5;fill:color(display-p3 0.9804 0.9725 0.9608);fill-opacity:1;"/>
<path d="M66.8608 8.09234H72.5189V13.1174H73.0386C73.4919 11.6013 74.3047 10.3665 75.4886 9.40918C76.6726 8.45184 78.3255 7.94777 80.4512 7.89307V14.1529H78.6576C77.6495 14.1529 76.7703 14.274 76.0279 14.5124C75.2854 14.7508 74.668 15.1181 74.1757 15.6104C73.6834 16.1027 73.3161 16.7319 73.0777 17.5055C72.8393 18.2753 72.7182 19.2327 72.7182 20.3737V28.0246H66.8569V8.09234H66.8608Z" fill="#FAF8F5" style="fill:#FAF8F5;fill:color(display-p3 0.9804 0.9725 0.9608);fill-opacity:1;"/>
<path d="M82.6943 8.09179H88.5126V18.4936C88.5126 20.0371 88.8096 21.1937 89.4114 21.9596C90.0092 22.7293 90.8767 23.1162 92.0216 23.1162C92.553 23.1162 93.0649 23.0107 93.5572 22.7958C94.0496 22.5848 94.4989 22.2331 94.9131 21.7368C95.3273 21.2445 95.6634 20.588 95.9291 19.7635C96.1948 18.943 96.3276 17.9036 96.3276 16.6571V8.08789H102.228V28.0162H96.5269V23.0341H96.0072C95.7689 23.8039 95.4485 24.5112 95.0499 25.1442C94.6513 25.7811 94.1668 26.3321 93.5963 26.7971C93.0258 27.2621 92.3732 27.6294 91.6425 27.8951C90.9118 28.1608 90.1342 28.2936 89.3098 28.2936C88.3251 28.2936 87.4302 28.1334 86.6214 27.813C85.8125 27.4926 85.1209 26.9807 84.5504 26.2774C83.9799 25.574 83.5266 24.6753 83.1945 23.589C82.8624 22.4988 82.6982 21.1976 82.6982 19.6815V8.08789L82.6943 8.09179Z" fill="#FAF8F5" style="fill:#FAF8F5;fill:color(display-p3 0.9804 0.9725 0.9608);fill-opacity:1;"/>
<path d="M110.364 21.4015C110.47 22.3588 110.849 23.0778 111.501 23.5545C112.15 24.0351 113.142 24.2696 114.471 24.2696C114.897 24.2696 115.292 24.2305 115.667 24.1485C116.038 24.0703 116.362 23.957 116.644 23.8085C116.925 23.6639 117.152 23.4685 117.323 23.2302C117.495 22.9918 117.581 22.7105 117.581 22.394C117.581 22.0462 117.507 21.7883 117.363 21.6164C117.214 21.4445 117.023 21.2842 116.784 21.1358C116.546 20.9912 116.288 20.8779 116.007 20.7958C115.725 20.7137 115.401 20.6356 115.03 20.5574L111.443 19.9596C110.673 19.8267 109.899 19.6275 109.129 19.3618C108.36 19.096 107.668 18.7444 107.058 18.3028C106.449 17.8613 105.949 17.2947 105.566 16.5874C105.179 15.8841 104.987 15.04 104.987 14.0593C104.987 12.8089 105.245 11.7616 105.765 10.9137C106.285 10.0658 106.961 9.38587 107.797 8.8818C108.633 8.37773 109.571 8.01824 110.606 7.80724C111.642 7.59232 112.689 7.48682 113.752 7.48682C115.428 7.48682 116.835 7.67829 117.976 8.06513C119.117 8.45198 120.055 8.96386 120.786 9.60078C121.516 10.2377 122.067 10.984 122.438 11.832C122.81 12.6799 123.064 13.5708 123.196 14.5047H117.257C117.179 13.6841 116.858 13.0394 116.3 12.5705C115.745 12.1055 114.889 11.875 113.748 11.875C113.35 11.875 112.982 11.9023 112.65 11.9531C112.318 12.0078 112.017 12.1133 111.751 12.2735C111.486 12.4337 111.271 12.633 111.114 12.8714C110.954 13.1097 110.876 13.3911 110.876 13.7076C110.876 13.9459 110.935 14.1726 111.056 14.3836C111.177 14.5985 111.337 14.7626 111.536 14.8798C111.736 15.001 111.966 15.0986 112.236 15.1768C112.502 15.2549 112.795 15.337 113.111 15.4152L116.858 16.0912C117.656 16.224 118.445 16.4155 119.23 16.6695C120.012 16.9235 120.723 17.279 121.364 17.744C122.005 18.209 122.501 18.7795 122.857 19.4594C123.212 20.1393 123.396 20.9677 123.396 21.9485C123.396 23.1169 123.165 24.1289 122.7 24.9768C122.235 25.8248 121.598 26.5242 120.789 27.0713C119.981 27.6144 119.035 28.0208 117.96 28.2865C116.886 28.5522 115.721 28.6851 114.471 28.6851C112.822 28.6851 111.396 28.4936 110.184 28.1068C108.973 27.7199 107.965 27.1963 107.156 26.532C106.347 25.8677 105.722 25.0941 105.284 24.1992C104.843 23.3122 104.573 22.3744 104.468 21.3897H110.368V21.4015H110.364Z" fill="#FAF8F5" style="fill:#FAF8F5;fill:color(display-p3 0.9804 0.9725 0.9608);fill-opacity:1;"/>
<path d="M11.8671 22.9208L13.266 8.08789H20.0416L21.4405 22.9208L22.2259 23.0732C22.9762 21.3187 25.4379 15.6997 25.9576 8.09179H33.292L27.7902 28.0201H18.2403L16.8687 18.0559H16.4545L15.083 28.0201H5.52132L0 8.09179H7.35003C7.86973 15.7036 10.3276 21.3187 11.0817 23.0732L11.8671 22.9208Z" fill="#FAF8F5" style="fill:#FAF8F5;fill:color(display-p3 0.9804 0.9725 0.9608);fill-opacity:1;"/>
<path d="M0.0117221 37.4396H2.7626V41.984H3.04004C3.2784 41.2143 3.61054 40.5383 4.03645 39.9521C4.46237 39.3699 4.94691 38.8619 5.49005 38.436C6.03319 38.0101 6.63886 37.6936 7.30314 37.4787C7.96742 37.2677 8.67076 37.1583 9.41709 37.1583C10.9567 37.1583 12.2383 37.5959 13.2621 38.4751C14.2859 39.3504 14.9697 40.6281 15.3135 42.3006H15.591C15.8293 41.4761 16.1615 40.7532 16.5874 40.128C17.0133 39.5028 17.5096 38.9714 18.0801 38.5337C18.6506 38.0961 19.2836 37.7561 19.9713 37.5178C20.6629 37.2794 21.3936 37.1583 22.1634 37.1583C23.1442 37.1583 24.0234 37.3263 24.7932 37.6545C25.5629 37.9867 26.2272 38.4868 26.786 39.1472C27.3448 39.8115 27.7668 40.6281 28.0598 41.5972C28.3529 42.5663 28.4975 43.7034 28.4975 45.0046V57.3562H25.6294V45.4031C25.6294 43.4376 25.2308 41.9958 24.4337 41.0814C23.6365 40.1631 22.5346 39.706 21.1279 39.706C20.3308 39.706 19.5923 39.8662 18.9163 40.1827C18.2403 40.5031 17.662 40.972 17.1813 41.5972C16.7046 42.2224 16.3256 43.0195 16.0442 43.9886C15.7668 44.9577 15.6261 46.1065 15.6261 47.435V57.3562H12.8362V45.4031C12.8362 43.4376 12.4454 41.9958 11.66 41.0814C10.8746 40.1631 9.76877 39.706 8.33081 39.706C7.77203 39.706 7.17418 39.8115 6.53726 40.0264C5.90034 40.2374 5.3064 40.632 4.76326 41.2025C4.22011 41.773 3.76684 42.5585 3.40735 43.5549C3.04786 44.5513 2.86811 45.8447 2.86811 47.4389V57.3601H0V37.4357L0.0117221 37.4396Z" fill="url(#paint0_linear_2302_2420)"/>
<path d="M32.2286 43.2188C32.721 41.9449 33.397 40.843 34.2605 39.913C35.1241 38.983 36.1518 38.2523 37.3475 37.7209C38.5432 37.1895 39.8444 36.9238 41.2511 36.9238C42.6578 36.9238 43.9668 37.1895 45.1742 37.7209C46.3816 38.2523 47.421 38.983 48.2846 39.913C49.1482 40.843 49.8242 41.9449 50.3165 43.2188C50.8089 44.4926 51.055 45.8876 51.055 47.4037V48.5213H34.3973C34.5028 49.5841 34.7412 50.5336 35.1124 51.3698C35.4836 52.2061 35.9838 52.925 36.6051 53.5229C37.2303 54.1207 37.9531 54.5779 38.7776 54.8983C39.6021 55.2187 40.5047 55.375 41.4855 55.375C43.1853 55.375 44.5725 55.0116 45.6509 54.2809C46.7255 53.5502 47.464 52.5343 47.8626 51.2331H50.8518C50.5861 52.1904 50.1876 53.0813 49.6561 53.9019C49.1247 54.7264 48.4683 55.4297 47.6828 56.012C46.8974 56.5981 45.9909 57.0553 44.9515 57.3874C43.916 57.7196 42.7594 57.8876 41.4855 57.8876C39.946 57.8876 38.5549 57.6219 37.3201 57.0904C36.0853 56.559 35.0342 55.8283 34.1707 54.8983C33.3071 53.9683 32.6428 52.8664 32.1778 51.5926C31.7128 50.3187 31.4823 48.9237 31.4823 47.4076C31.4823 45.8915 31.7285 44.5004 32.2208 43.2227L32.2286 43.2188ZM48.1088 46.2862C48.0541 45.3288 47.8548 44.434 47.5109 43.5978C47.1671 42.7616 46.6943 42.0231 46.0964 41.3861C45.4986 40.7492 44.7874 40.2452 43.9629 39.87C43.1384 39.4988 42.2358 39.3113 41.255 39.3113C40.2742 39.3113 39.3755 39.4988 38.5666 39.87C37.7578 40.2412 37.0505 40.7414 36.4566 41.3627C35.8587 41.9879 35.3859 42.7225 35.042 43.5744C34.6982 44.4262 34.4989 45.3288 34.4442 46.2823H48.1127L48.1088 46.2862Z" fill="url(#paint1_linear_2302_2420)"/>
<path d="M54.2862 37.4396H57.0371V41.984H57.3146C57.5529 41.2143 57.885 40.5383 58.311 39.9521C58.7369 39.3699 59.2214 38.8619 59.7646 38.436C60.3077 38.0101 60.9134 37.6936 61.5777 37.4787C62.2419 37.2677 62.9453 37.1583 63.6916 37.1583C65.2312 37.1583 66.5128 37.5959 67.5366 38.4751C68.5604 39.3504 69.2442 40.6281 69.5881 42.3006H69.8655C70.1039 41.4761 70.436 40.7532 70.8619 40.128C71.2878 39.5028 71.7841 38.9714 72.3546 38.5337C72.9251 38.0961 73.5581 37.7561 74.2458 37.5178C74.9374 37.2794 75.6681 37.1583 76.4379 37.1583C77.4187 37.1583 78.2979 37.3263 79.0677 37.6545C79.8375 37.9867 80.5017 38.4868 81.0605 39.1472C81.6193 39.8115 82.0413 40.6281 82.3344 41.5972C82.6274 42.5663 82.772 43.7034 82.772 45.0046V57.3562H79.9039V45.4031C79.9039 43.4376 79.5053 41.9958 78.7082 41.0814C77.911 40.1631 76.8091 39.706 75.4024 39.706C74.6053 39.706 73.8668 39.8662 73.1908 40.1827C72.5148 40.5031 71.9364 40.972 71.4558 41.5972C70.9791 42.2224 70.6001 43.0195 70.3188 43.9886C70.0413 44.9577 69.9007 46.1065 69.9007 47.435V57.3562H67.1107V45.4031C67.1107 43.4376 66.7199 41.9958 65.9345 41.0814C65.1491 40.1631 64.0433 39.706 62.6053 39.706C62.0466 39.706 61.4487 39.8115 60.8118 40.0264C60.1748 40.2374 59.5809 40.632 59.0378 41.2025C58.4946 41.773 58.0414 42.5585 57.6819 43.5549C57.3224 44.5513 57.1426 45.8447 57.1426 47.4389V57.3601H54.2745V37.4357L54.2862 37.4396Z" fill="url(#paint2_linear_2302_2420)"/>
<path d="M86.5244 43.2579C87.0285 41.9841 87.7319 40.8743 88.6345 39.9287C89.5371 38.987 90.6117 38.2485 91.8621 37.7171C93.1086 37.1856 94.4919 36.9199 96.008 36.9199C97.5241 36.9199 98.8722 37.1856 100.134 37.7171C101.396 38.2485 102.479 38.987 103.381 39.9287C104.284 40.8704 104.987 41.988 105.492 43.2774C105.996 44.5669 106.25 45.9541 106.25 47.4428C106.25 48.9316 105.996 50.2719 105.492 51.5457C104.987 52.8196 104.284 53.9293 103.381 54.871C102.479 55.8127 101.396 56.5513 100.134 57.0827C98.8722 57.6141 97.4967 57.8798 96.008 57.8798C94.5192 57.8798 93.1438 57.6141 91.8856 57.0827C90.6234 56.5513 89.541 55.8127 88.6384 54.871C87.7358 53.9293 87.0324 52.8196 86.5283 51.5457C86.0243 50.2719 85.7703 48.8886 85.7703 47.3999C85.7703 45.9111 86.0204 44.5318 86.5283 43.254L86.5244 43.2579ZM89.1933 50.5102C89.5645 51.4676 90.0764 52.296 90.7289 52.9993C91.3815 53.7027 92.1552 54.2497 93.0617 54.6327C93.9643 55.0195 94.949 55.211 96.0119 55.211C97.0747 55.211 98.0516 55.0195 98.9425 54.6327C99.8334 54.2458 100.611 53.7027 101.275 52.9993C101.94 52.296 102.455 51.4637 102.83 50.5102C103.202 49.5529 103.389 48.5174 103.389 47.4038C103.389 46.2901 103.202 45.2195 102.83 44.2739C102.459 43.3322 101.94 42.5077 101.275 41.8043C100.611 41.101 99.8334 40.5578 98.9425 40.171C98.0516 39.788 97.0747 39.5927 96.0119 39.5927C94.949 39.5927 93.9643 39.7841 93.0617 40.171C92.1591 40.5578 91.3815 41.101 90.7289 41.8043C90.0764 42.5077 89.5645 43.3322 89.1933 44.2739C88.8221 45.2156 88.6345 46.2589 88.6345 47.4038C88.6345 48.5487 88.8221 49.5568 89.1933 50.5102Z" fill="url(#paint3_linear_2302_2420)"/>
<path d="M109.439 37.4393H112.19V42.7808H112.467C113.049 41.0537 114.089 39.7056 115.574 38.7366C117.062 37.7675 119.012 37.283 121.431 37.283V40.3113H120.036C118.735 40.3113 117.606 40.4793 116.648 40.8076C115.691 41.1397 114.89 41.6633 114.237 42.3823C113.585 43.1013 113.1 44.0039 112.784 45.0902C112.463 46.1804 112.307 47.4816 112.307 48.9938V57.3637H109.439V37.4393Z" fill="url(#paint4_linear_2302_2420)"/>
<path d="M129.719 57.3639L122.189 37.4395H125.139L132.075 55.6915L139.05 37.4395H142L131.399 65.4524H128.449L131.516 57.3639H129.719Z" fill="url(#paint5_linear_2302_2420)"/>
<defs>
<linearGradient id="paint0_linear_2302_2420" x1="0.0732923" y1="41.4522" x2="139.844" y2="52.0765" gradientUnits="userSpaceOnUse">
<stop stop-color="#2F5CFF" style="stop-color:#2F5CFF;stop-color:color(display-p3 0.1860 0.3623 1.0000);stop-opacity:1;"/>
<stop offset="0.490385" stop-color="#9249FF" style="stop-color:#9249FF;stop-color:color(display-p3 0.5711 0.2851 1.0000);stop-opacity:1;"/>
<stop offset="1" stop-color="#EEA0FF" style="stop-color:#EEA0FF;stop-color:color(display-p3 0.9314 0.6283 1.0000);stop-opacity:1;"/>
</linearGradient>
<linearGradient id="paint1_linear_2302_2420" x1="0.0732923" y1="41.4522" x2="139.844" y2="52.0765" gradientUnits="userSpaceOnUse">
<stop stop-color="#2F5CFF" style="stop-color:#2F5CFF;stop-color:color(display-p3 0.1860 0.3623 1.0000);stop-opacity:1;"/>
<stop offset="0.490385" stop-color="#9249FF" style="stop-color:#9249FF;stop-color:color(display-p3 0.5711 0.2851 1.0000);stop-opacity:1;"/>
<stop offset="1" stop-color="#EEA0FF" style="stop-color:#EEA0FF;stop-color:color(display-p3 0.9314 0.6283 1.0000);stop-opacity:1;"/>
</linearGradient>
<linearGradient id="paint2_linear_2302_2420" x1="0.0732923" y1="41.4522" x2="139.844" y2="52.0765" gradientUnits="userSpaceOnUse">
<stop stop-color="#2F5CFF" style="stop-color:#2F5CFF;stop-color:color(display-p3 0.1860 0.3623 1.0000);stop-opacity:1;"/>
<stop offset="0.490385" stop-color="#9249FF" style="stop-color:#9249FF;stop-color:color(display-p3 0.5711 0.2851 1.0000);stop-opacity:1;"/>
<stop offset="1" stop-color="#EEA0FF" style="stop-color:#EEA0FF;stop-color:color(display-p3 0.9314 0.6283 1.0000);stop-opacity:1;"/>
</linearGradient>
<linearGradient id="paint3_linear_2302_2420" x1="0.0732923" y1="41.4522" x2="139.844" y2="52.0765" gradientUnits="userSpaceOnUse">
<stop stop-color="#2F5CFF" style="stop-color:#2F5CFF;stop-color:color(display-p3 0.1860 0.3623 1.0000);stop-opacity:1;"/>
<stop offset="0.490385" stop-color="#9249FF" style="stop-color:#9249FF;stop-color:color(display-p3 0.5711 0.2851 1.0000);stop-opacity:1;"/>
<stop offset="1" stop-color="#EEA0FF" style="stop-color:#EEA0FF;stop-color:color(display-p3 0.9314 0.6283 1.0000);stop-opacity:1;"/>
</linearGradient>
<linearGradient id="paint4_linear_2302_2420" x1="0.0732923" y1="41.4522" x2="139.844" y2="52.0765" gradientUnits="userSpaceOnUse">
<stop stop-color="#2F5CFF" style="stop-color:#2F5CFF;stop-color:color(display-p3 0.1860 0.3623 1.0000);stop-opacity:1;"/>
<stop offset="0.490385" stop-color="#9249FF" style="stop-color:#9249FF;stop-color:color(display-p3 0.5711 0.2851 1.0000);stop-opacity:1;"/>
<stop offset="1" stop-color="#EEA0FF" style="stop-color:#EEA0FF;stop-color:color(display-p3 0.9314 0.6283 1.0000);stop-opacity:1;"/>
</linearGradient>
<linearGradient id="paint5_linear_2302_2420" x1="0.0732923" y1="41.4522" x2="139.844" y2="52.0765" gradientUnits="userSpaceOnUse">
<stop stop-color="#2F5CFF" style="stop-color:#2F5CFF;stop-color:color(display-p3 0.1860 0.3623 1.0000);stop-opacity:1;"/>
<stop offset="0.490385" stop-color="#9249FF" style="stop-color:#9249FF;stop-color:color(display-p3 0.5711 0.2851 1.0000);stop-opacity:1;"/>
<stop offset="1" stop-color="#EEA0FF" style="stop-color:#EEA0FF;stop-color:color(display-p3 0.9314 0.6283 1.0000);stop-opacity:1;"/>
</linearGradient>
</defs>
</svg>
