<svg width="550" height="203" viewBox="0 0 550 203" fill="none" xmlns="http://www.w3.org/2000/svg">
<path fill-rule="evenodd" clip-rule="evenodd" d="M589.503 145.119L647.648 198.395C645.356 198.395 581.197 198.395 579.192 198.395C566.016 198.108 554.845 180.923 568.594 166.315C574.323 160.3 586.639 148.27 589.503 145.119Z" fill="#FBFFEA" stroke="#0F0F0F" stroke-width="5.63833" stroke-linecap="round" stroke-linejoin="round"/>
<path fill-rule="evenodd" clip-rule="evenodd" d="M651.778 198.383C612.251 199.243 590.196 176.615 587.904 147.686C584.467 100.425 606.522 70.6369 653.783 50.8734C693.023 34.8335 715.651 4.75865 765.776 3.61294C840.819 1.89438 866.311 46.0041 904.12 150.264C905.266 153.414 919.582 160.951 928.753 168.881C942.72 180.96 934.762 198.956 919.582 198.956C909.843 198.956 661.802 198.383 651.778 198.383Z" fill="#FBFFEA" stroke="#0F0F0F" stroke-width="5.63833" stroke-linecap="round" stroke-linejoin="round"/>
<path d="M616.428 162.856C631.036 163.142 635.618 148.534 635.905 137.65C634.759 169.444 669.13 171.162 680.874 144.524" stroke="#0F0F0F" stroke-width="5.63833" stroke-linecap="round" stroke-linejoin="round"/>
<path fill-rule="evenodd" clip-rule="evenodd" d="M635.602 138.23C634.17 137.658 629.873 134.507 628.155 132.502C618.13 120.758 644.195 118.18 647.918 125.914C650.21 129.924 647.059 132.788 644.767 134.22C639.898 137.371 635.602 138.23 635.602 138.23Z" fill="#0F0F0F" stroke="#0F0F0F" stroke-width="5.63833" stroke-linecap="round" stroke-linejoin="round"/>
<path fill-rule="evenodd" clip-rule="evenodd" d="M630.477 84.3957C637.065 83.8228 641.361 89.5514 640.216 97.2849C638.784 105.018 632.196 111.606 625.321 112.466C618.734 113.038 614.437 107.31 615.869 99.5763C617.302 91.8428 623.889 84.9685 630.477 84.3957Z" fill="#0F0F0F" stroke="#0F0F0F" stroke-width="5.63833" stroke-linecap="round" stroke-linejoin="round"/>
<path fill-rule="evenodd" clip-rule="evenodd" d="M671.137 84.3958C678.011 83.8229 682.307 89.5515 680.875 97.285C679.443 105.019 672.855 111.606 666.267 112.466C659.393 113.038 655.097 107.31 656.529 99.5764C657.961 91.8429 664.549 84.9686 671.137 84.3958Z" fill="#0F0F0F" stroke="#0F0F0F" stroke-width="5.63833" stroke-linecap="round" stroke-linejoin="round"/>
<path fill-rule="evenodd" clip-rule="evenodd" d="M684.012 90.3993C684.012 86.3894 686.303 95.555 686.303 98.1329C686.303 100.711 684.584 107.299 682.293 107.871C680.288 108.444 675.419 114.459 677.424 111.309C679.429 107.871 675.705 105.007 673.414 103.002C670.263 100.711 670.263 97.2736 674.273 96.1279C677.71 94.9822 683.725 94.9822 684.012 90.3993Z" fill="#FBFFEA"/>
<path fill-rule="evenodd" clip-rule="evenodd" d="M643.353 90.3993C643.353 86.3894 645.644 95.555 645.644 98.1329C645.644 100.711 643.639 107.299 641.634 107.871C639.629 108.444 634.76 114.459 636.765 111.309C638.77 107.871 635.046 105.007 632.468 103.002C629.604 100.711 629.604 97.2736 633.614 96.1279C637.051 94.9822 643.066 94.9822 643.353 90.3993Z" fill="#FBFFEA"/>
<path d="M770.246 132.784C775.402 137.081 782.849 145.387 786.859 149.397C802.039 164.578 808.627 178.899 799.748 189.783C793.733 196.944 778.552 198.376 757.93 198.662" stroke="#0F0F0F" stroke-width="5.63833" stroke-linecap="round" stroke-linejoin="round"/>
<path fill-rule="evenodd" clip-rule="evenodd" d="M619.576 162.582C629.601 161.723 633.038 155.708 633.898 150.839C633.898 150.266 635.043 152.844 636.189 154.276C638.48 157.14 639.34 162.01 654.52 163.155L619.576 162.582Z" fill="#0F0F0F" stroke="#0F0F0F" stroke-width="5.63833" stroke-linecap="round" stroke-linejoin="round"/>
<path fill-rule="evenodd" clip-rule="evenodd" d="M787.4 197.237C797.425 196.091 811.174 187.212 799.43 164.584C798.857 163.152 794.275 157.71 794.275 157.71C794.847 157.71 834.088 197.81 834.088 197.81L787.4 197.237Z" fill="#0F0F0F" stroke="#0F0F0F" stroke-width="5.63833" stroke-linecap="round" stroke-linejoin="round"/>
<path fill-rule="evenodd" clip-rule="evenodd" d="M633.345 197.805C618.451 193.795 608.999 187.78 597.828 173.172C593.818 168.017 587.803 159.137 588.09 152.55C588.09 152.263 587.517 150.831 587.23 150.545C592.959 174.318 597.542 186.062 587.23 197.805H633.345Z" fill="#0F0F0F" stroke="#0F0F0F" stroke-width="5.63833" stroke-linecap="round" stroke-linejoin="round"/>
<path fill-rule="evenodd" clip-rule="evenodd" d="M684.885 36.5508L649.368 54.0228C648.508 54.3093 659.965 50.8721 673.714 50.8721C686.89 50.8721 710.949 50.8721 710.949 50.8721C703.502 50.2993 687.462 46.5757 684.885 36.5508Z" fill="#0F0F0F" stroke="#0F0F0F" stroke-width="5.63833" stroke-linecap="round" stroke-linejoin="round"/>
<path d="M902.865 141.113L914.322 180.926" stroke="#0F0F0F" stroke-width="5.63833" stroke-linecap="round" stroke-linejoin="round"/>
<path fill-rule="evenodd" clip-rule="evenodd" d="M907.426 153.405L913.727 178.038C910.576 170.304 913.727 164.862 918.31 161.139C919.169 160.279 908.571 153.691 907.426 153.405Z" fill="#0F0F0F" stroke="#0F0F0F" stroke-width="5.63833" stroke-linecap="round" stroke-linejoin="round"/>
<path d="M664.265 71.7652L660.828 70.0466" stroke="#0F0F0F" stroke-width="5.63833" stroke-linecap="round" stroke-linejoin="round"/>
<path d="M641.062 71.7764L644.213 70.3442" stroke="#0F0F0F" stroke-width="5.63833" stroke-linecap="round" stroke-linejoin="round"/>
<g clip-path="url(#clip0_1019_155)">
<path fill-rule="evenodd" clip-rule="evenodd" d="M134.543 59.9052C134.635 59.9052 136.192 59.9195 136.192 59.9195C141.641 59.9195 146.669 56.6716 150.711 50.2043C152.328 47.779 163.645 26.7604 164.723 24.3351C170.113 11.4006 158.795 3.58593 150.172 3.58593C148.555 3.58593 105.709 3.58593 103.823 3.58593C100.589 3.58593 86.0381 2.50805 78.7624 15.7121C72.834 27.2993 52.8932 60.9831 48.5817 68.7977C40.7671 83.888 48.0428 97.9005 60.4384 105.446C68.5225 110.835 80.3792 118.65 92.5054 126.734C92.5054 126.734 87.116 133.471 80.6487 129.159C79.0318 128.081 51.2764 110.027 49.6596 108.949C43.7312 105.176 30.5272 101.673 22.1736 112.721C21.3652 113.799 11.1254 130.506 8.16119 134.818C-1.80921 150.178 -1.53974 165.538 10.0475 174.7C12.7422 177.125 23.7905 188.173 26.2157 190.598C35.6471 200.03 35.9166 201.108 50.1985 201.377C50.468 201.377 92.2359 201.377 92.5054 201.377C100.859 201.647 105.17 200.03 109.751 194.91C123.764 170.388 160.142 100.326 162.837 95.7447C166.879 89.2775 164.454 82.8102 159.603 79.846C157.717 78.4986 152.597 74.9955 150.711 73.6482C143.705 68.5282 144.244 68.7977 134.273 68.7977C133.734 68.7977 126.459 68.7977 123.494 68.7977C121.878 68.7977 118.644 69.0672 115.41 66.103C113.794 64.4862 112.985 62.3304 112.716 59.9052C122.417 59.9052 124.842 59.9052 134.543 59.9052Z" fill="black"/>
<path fill-rule="evenodd" clip-rule="evenodd" d="M167.686 73.6412C160.949 69.5992 156.099 59.6288 161.219 50.1973C163.644 45.0774 171.997 29.7176 177.656 19.7472C184.124 8.69891 187.088 4.11792 202.448 4.11792C203.256 4.11792 249.066 4.11792 249.335 4.11792C266.581 4.11792 267.12 16.5136 267.12 21.364C267.12 23.5198 267.12 64.4793 267.12 66.9045C267.12 75.797 254.994 85.4979 240.443 74.1802C239.634 73.6412 229.933 66.3655 223.466 61.5151C221.58 60.1677 213.765 53.9699 212.687 53.1615C211.879 52.3531 208.106 62.3235 216.46 68.2518C219.963 70.9465 228.047 77.4138 231.55 80.1085C240.712 86.3063 240.443 98.163 232.359 103.822C229.664 105.978 222.658 110.289 219.155 112.445C207.837 118.643 211.879 128.883 212.148 128.613C214.304 126.727 242.599 109.481 245.563 107.056C254.186 100.858 267.929 104.361 267.39 116.218C267.39 117.026 267.39 177.926 267.39 178.735C267.929 193.555 262.809 201.37 246.91 201.909C245.293 202.179 143.703 201.909 141.817 201.909C126.996 201.909 122.954 187.088 129.96 175.232C145.32 150.44 169.033 101.666 173.614 93.3126C176.578 87.9232 179.273 80.6475 171.458 76.0665C163.644 71.216 177.387 79.5696 167.686 73.6412Z" fill="black"/>
<path fill-rule="evenodd" clip-rule="evenodd" d="M276.286 185.198C276.017 183.582 276.017 19.2048 276.017 18.1269C276.556 10.0428 281.945 3.84501 293.263 4.11448C293.802 4.11448 315.629 4.11448 316.168 4.11448C325.869 4.65342 333.144 10.5818 338.803 21.0911C342.576 28.3668 414.255 166.605 420.722 177.384C427.459 188.971 420.992 201.906 410.213 201.906C404.015 201.906 374.373 201.906 367.098 201.636C358.205 201.367 354.163 194.899 353.355 189.241C353.085 187.085 352.277 179.27 351.738 175.767C351.199 171.994 352.277 165.797 357.127 163.371C362.786 160.407 370.062 158.79 373.295 156.904C377.607 154.479 376.529 150.167 376.529 150.167C373.026 150.167 309.161 150.167 309.161 150.167C309.161 150.167 308.353 155.287 312.395 156.635C313.473 156.904 325.599 160.407 332.336 162.832C341.228 166.336 341.767 170.917 342.845 175.228C343.115 176.575 344.193 188.432 344.193 190.049C344.732 195.708 342.037 201.367 332.605 201.636C321.288 201.636 304.311 201.636 295.418 201.636C284.909 201.636 276.556 195.708 276.286 185.198Z" fill="black"/>
<path fill-rule="evenodd" clip-rule="evenodd" d="M349.039 21.3722C357.123 37.2709 420.718 156.916 428.263 172.006L429.341 174.431V174.97C431.497 178.473 436.078 189.791 440.928 194.911C445.509 200.031 449.821 201.648 458.175 201.378C458.175 201.378 496.978 201.378 497.248 201.378C511.53 201.109 511.799 200.031 521.231 190.599C523.656 188.174 534.704 177.126 537.668 174.701C548.986 165.539 549.256 150.179 539.285 134.819C536.321 130.508 526.081 113.8 525.273 112.723C516.919 101.674 503.985 105.177 497.787 108.95C496.978 109.489 490.78 113.531 484.044 117.842L482.427 118.92C477.846 121.615 473.265 121.076 471.379 119.459C469.492 118.112 468.145 115.956 467.606 111.375C464.911 94.1291 456.827 55.0559 453.055 28.9173C450.09 6.82077 435.27 3.8566 426.916 3.8566C422.066 4.12607 362.782 4.12607 358.74 4.12607C350.117 4.39554 344.189 13.2881 349.039 21.3722Z" fill="black"/>
<path d="M475.534 77.7816H485.679V80.1466H482.131V89.5443H479.206V80.1466H475.534V77.7816ZM501.456 77.7816V89.5443H498.562V80.6756L495.45 89.5443H493.52L490.346 80.5512V89.5443H487.484V77.7816H491.933L494.485 85.6234L497.037 77.7816H501.456Z" fill="black"/>
</g>
<defs>
<clipPath id="clip0_1019_155">
<rect width="545.572" height="198.464" fill="white" transform="translate(1 3.5647)"/>
</clipPath>
</defs>
</svg>
