<svg fill="none" height="128" viewBox="0 0 128 128" width="128" xmlns="http://www.w3.org/2000/svg" xmlns:xlink="http://www.w3.org/1999/xlink"><clipPath id="a"><path d="m0 0h128v128h-128z"/></clipPath><mask id="b" height="92" maskUnits="userSpaceOnUse" width="104" x="24" y="36"><path d="m128 36.6454h-103.6418v91.3546h103.6418z" fill="#fff"/></mask><mask id="c" height="92" maskUnits="userSpaceOnUse" width="104" x="0" y="0"><path d="m-.00001526 91.3546h103.64201526v-91.3546h-103.64201526z" fill="#fff"/></mask><g clip-path="url(#a)"><g mask="url(#b)"><path d="m64.0517 128c-17.6466 0-30.9133-7.313-38.4804-12.911-2.3196-1.716-1.0862-5.37 1.7966-5.36h.1421c24.3003 0 45.6773-19.3062 45.6773-45.6773 0-16.7634 13.8706-27.4063 27.4067-27.4063 13.535 0 27.406 10.785 27.406 27.4063 0 32.9994-26.503 63.9483-63.9483 63.9483z" fill="#2369ff"/><g fill="#fff"><path d="m40.8274 121.072c-21.7981-12.383 20.5955-8.389 30.6445-41.9112 2.8219-8.298 1.4464-17.4791 4.9078-25.4981 7.5975-18.9509 35.8163-21.3161 46.4533-3.8623 20.342 45.3423-39.1855 94.4406-82.0056 71.2716z" opacity=".3"/><path d="m44.5881 120.676c-17.3576-8.12 25.0158-19.225 27.7514-42.3477 2.4005-7.628 1.5326-16.002 4.4813-23.4119 6.7755-18.4994 33.8312-21.7831 44.7332-5.3087 21.392 42.3529-36.1864 93.2733-76.9659 71.0683z" opacity=".3"/><path d="m51.5566 121.24c-19.626-7.638 18.4131-21.103 22.2349-45.0024 1.8778-7.1207 1.431-14.8808 4.5169-21.6563 15.5809-29.203 52.3866-10.4853 46.1996 19.5095-4.369 32.6492-40.8605 59.6342-72.9514 47.1492z" opacity=".3"/><path d="m52.0894 114.216s0-.026 0-.036c.1825-1.786.8271-3.502 1.888-4.948 3.3748-4.588 7.9933-8.435 11.3328-13.0387 4.1416-5.7096 7.3288-12.0435 9.2575-18.8342 4.0653-14.3071 3.7555-32.0806 22.3869-35.1613 18.5654-3.0705 28.3194 14.6217 26.3054 30.7002-1.868 14.8806-10.075 28.741-21.849 37.943-11.7749 9.201-28.8736 14.901-43.2009 9.749-1.619-.584-3.167-1.258-4.4916-2.345-.2437-.198-.4518-.426-.6446-.675-.0051-.005-.0102-.015-.0153-.02-.7409-.944-1.0911-2.137-.9692-3.329z" opacity=".3"/><path d="m59.9053 116.459c-.4974-.325-1.3957-1.508-1.4974-1.766-.1623-.412-.4871-1.142-.4871-1.807s0-.888.1828-1.675c1.9945-6.055 7.0392-11.105 10.3585-16.5097 3.03-4.9382 5.4507-10.2369 7.156-15.7791 4.0553-13.1701 3.7202-30.3805 20.4382-34.1819 16.7177-3.8013 26.7517 12.0336 25.5187 26.8076-1.173 14.0078-8.644 27.3608-19.358 36.3341-9.7744 8.186-30.3749 17.707-42.3017 8.567z" opacity=".3"/><path d="m66.5641 113.414c-.7309-.604-1.2943-1.442-1.5885-2.355-1.1827-5.771 4.2074-12.3992 6.6688-17.3323 2.4615-4.9331 4.4916-9.856 6.0194-15.0735 3.3902-11.5715 4.2631-26.9648 18.3063-30.6343 16.1849-4.2275 24.6299 12.2263 22.9199 25.9042-1.538 12.267-8.232 23.8182-17.662 31.7259-7.694 6.455-25.2899 15.712-34.669 7.765z" opacity=".3"/><path d="m73.5375 108.404c-4.6996-6.08 4.4306-21.4731 6.3542-27.9186 2.6442-8.8615 3.8267-20.4788 12.1756-26.0716 11.1757-7.4859 22.7117 2.228 23.6707 13.9825.828 10.1401-3.674 20.575-10.028 28.2588-6.2888 7.6029-20.347 18.2349-30.8021 12.8459l-.3098-.173c-.4108-.233-.7713-.548-1.0606-.924z" opacity=".3"/><path d="m81.4446 99.7967c-2.0301-5.6637 1.0051-13.1346 2.5124-18.6414 1.7559-6.41 3.3344-14.2005 8.2422-19.0474 6.8108-6.7297 16.1898-2.5882 18.1338 6.2528 1.629 7.3997-1.193 15.6216-5.344 21.717-4.167 6.1107-11.0949 12.3733-18.9057 12.4543 0 0-1.3448-.106-1.8473-.314s-1.1876-.452-1.5833-.843c0 0-.8223-.715-1.2081-1.568z" opacity=".3"/></g></g><g mask="url(#c)"><path d="m63.9483 0c17.6466 0 30.9133 7.31341 38.4807 12.9114 2.319 1.7154 1.086 5.3696-1.797 5.3596-.045 0-.096 0-.142 0-24.3003 0-45.6773 19.3062-45.6773 45.6773 0 16.7634-13.8706 27.4063-27.4064 27.4063-13.5357 0-27.4063-10.785-27.4063-27.4063 0-32.9994 26.5029-63.9483 63.9483-63.9483z" fill="#2369ff"/><g fill="#fff"><path d="m87.1726 6.92787c21.7984 12.38353-20.5954 8.38943-30.6445 41.91133-2.8218 8.298-1.4464 17.4791-4.9077 25.4981-7.5976 18.9509-35.816 21.3161-46.45379 3.8623-20.34171-45.3423 39.18589-94.4404 82.00599-71.27173z" opacity=".3"/><path d="m83.412 7.32365c17.358 8.12035-25.0158 19.22505-27.7515 42.34805-2.4005 7.628-1.5326 16.002-4.4812 23.4119-6.7756 18.4994-33.8317 21.7831-44.73348 5.3087-21.39222-42.3529 36.18658-93.2729 76.96618-71.06865z" opacity=".3"/><path d="m76.4434 6.76019c19.626 7.63831-18.4131 21.10281-22.2349 45.00221-1.8777 7.1207-1.431 14.8808-4.5168 21.6564-15.581 29.2032-52.38686 10.4852-46.20011-19.5095 4.36992-32.649 40.86091-59.63423 72.95181-47.14911z" opacity=".3"/><path d="m75.9107 13.7843v.0356c-.1826 1.7864-.8272 3.5018-1.888 4.9485-3.3749 4.588-7.9934 8.4349-11.3329 13.0383-4.1416 5.7096-7.3288 12.0435-9.2575 18.8342-4.0653 14.3071-3.7555 32.0806-22.3869 35.1613-18.5651 3.0705-28.31977-14.6217-26.30505-30.7003 1.86777-14.8805 10.07435-28.7411 21.84905-37.9425 11.7745-9.20139 28.8733-14.90097 43.2006-9.74948 1.6189.58368 3.1669 1.25849 4.4915 2.3447.2437.19789.4518.42628.6446.67508.0051.0051.0102.0151.0153.0202.7409.9441 1.0911 2.1366.9693 3.3293z" opacity=".3"/><path d="m68.0947 11.5412c.4974.3249 1.3957 1.5074 1.4974 1.7662.1623.4111.4871 1.142.4871 1.8068 0 .6649 0 .8881-.1827 1.6748-1.9945 6.0546-7.0393 11.1048-10.3586 16.5097-3.03 4.9382-5.4507 10.2369-7.1559 15.7791-4.0553 13.1701-3.7202 30.3805-20.4383 34.1819-16.7178 3.8013-26.7515-12.0336-25.51835-26.8076 1.17248-14.0078 8.64335-27.3608 19.35715-36.3338 9.7749-8.1864 30.3755-17.70755 42.3022-8.5671z" opacity=".3"/><path d="m61.4359 14.5864c.7309.6039 1.2943 1.4412 1.5885 2.3549 1.1827 5.7705-4.2074 12.3989-6.6688 17.332-2.4615 4.9331-4.4915 9.856-6.0193 15.0735-3.3903 11.5715-4.2632 26.9648-18.3063 30.6343-16.1851 4.2275-24.63032-12.2263-22.91998-25.9042 1.53778-12.267 8.23218-23.8182 17.66198-31.7255 7.694-6.4556 25.29-15.71281 34.669-7.765z" opacity=".3"/><path d="m54.4625 19.5955c4.6996 6.0803-4.4306 21.4736-6.3542 27.9191-2.6442 8.8615-3.8267 20.4787-12.1756 26.0716-11.1757 7.4859-22.7118-2.228-23.6711-13.9825-.8271-10.1401 3.6747-20.575 10.0288-28.2588 6.2884-7.6027 20.3467-18.2354 30.8017-12.8456l.3098.1726c.4109.2334.7713.5481 1.0606.9236z" opacity=".3"/><path d="m46.5554 28.2033c2.0301 5.6637-1.0051 13.1346-2.5124 18.6414-1.7559 6.41-3.3344 14.2005-8.2422 19.0474-6.8109 6.7297-16.1899 2.5882-18.1337-6.2528-1.6292-7.3997 1.1927-15.6216 5.3442-21.717 4.1667-6.1107 11.0946-12.3735 18.9054-12.4546 0 0 1.3447.1064 1.8473.3146.5025.2081 1.1875.4516 1.5833.8425 0 0 .8223.7155 1.2081 1.5682z" opacity=".3"/></g></g></g></svg>