<svg width="145" height="34" viewBox="0 0 145 34" fill="none" xmlns="http://www.w3.org/2000/svg">
<g clip-path="url(#clip0_2559_4)">
<path d="M40.1517 16.1503C40.62 14.7069 41.2855 13.4755 42.138 12.4462C42.9957 11.4219 44.0098 10.6057 45.1803 10.0096C46.3508 9.40954 47.5939 9.112 48.9014 9.112C50.8059 9.112 52.4252 9.67189 53.7695 10.7907C55.1097 11.9094 56.1371 13.3619 56.8619 15.1401H57.3301V9.33817H64.0239V32.3469H57.3301V26.545H56.8619C56.1463 28.3272 55.1138 29.7757 53.7695 30.8944C52.4293 32.0132 50.8059 32.5731 48.9014 32.5731C47.5888 32.5731 46.36 32.2756 45.2028 31.6755C44.0466 31.0754 43.0376 30.2632 42.1605 29.2389C41.2885 28.2146 40.6138 26.9742 40.1466 25.5348C39.6784 24.0913 39.4443 22.5252 39.4443 20.8425C39.4443 19.1599 39.6784 17.5898 40.1466 16.1503H40.1507H40.1517ZM46.726 23.2158C46.9918 23.9375 47.368 24.5648 47.8505 25.1015C48.3371 25.6383 48.9106 26.0625 49.5853 26.3691C50.2549 26.6757 50.9797 26.8295 51.7597 26.8295C52.5397 26.8295 53.3064 26.6757 53.9576 26.3691C54.6139 26.0625 55.1731 25.6473 55.6413 25.1287C56.1095 24.605 56.4897 23.9828 56.7883 23.2651C57.0868 22.5433 57.2329 21.7402 57.2329 20.8466C57.2329 19.953 57.0857 19.1548 56.7883 18.4281C56.4897 17.7064 56.1095 17.0882 55.6413 16.5645C55.1731 16.0408 54.6139 15.6306 53.9576 15.3241C53.3013 15.0175 52.5673 14.8637 51.7597 14.8637C50.9521 14.8637 50.2549 15.0175 49.5853 15.3241C48.9157 15.6306 48.3371 16.0548 47.8505 16.5916C47.3639 17.1284 46.9928 17.7556 46.726 18.4773C46.4602 19.1991 46.3273 19.9891 46.3273 20.8506C46.3273 21.712 46.4602 22.4971 46.726 23.2238V23.2148V23.2158Z" fill="black"/>
<path d="M67.4673 0H74.3492V32.352H67.4673V0Z" fill="black"/>
<path d="M77.9968 9.3432H84.6405V15.1451H85.2508C85.7834 13.3951 86.7372 11.9687 88.1275 10.864C89.5178 9.75834 91.4581 9.17634 93.9545 9.11401V16.3413H91.8486C90.6648 16.3413 89.6323 16.481 88.7603 16.7565C87.8883 17.0319 87.1635 17.4561 86.5859 18.024C86.0073 18.5929 85.5769 19.3187 85.2968 20.2123C85.0167 21.1009 84.8746 22.2066 84.8746 23.5234V32.357H77.9927V9.3432H77.9968Z" fill="black"/>
<path d="M96.5874 9.34322H103.419V21.3532C103.419 23.1354 103.768 24.4703 104.474 25.3549C105.177 26.2435 106.195 26.6908 107.539 26.6908C108.163 26.6908 108.764 26.5691 109.342 26.3209C109.921 26.0776 110.448 25.6715 110.934 25.0985C111.421 24.5296 111.815 23.7717 112.127 22.8198C112.439 21.8719 112.595 20.6727 112.595 19.2333V9.3392H119.523V32.348H112.829V26.5963H112.219C111.939 27.4849 111.563 28.3021 111.095 29.0329C110.626 29.7687 110.058 30.4039 109.387 30.9417C108.718 31.4785 107.951 31.9027 107.093 32.2093C106.236 32.5158 105.323 32.6696 104.355 32.6696C103.198 32.6696 102.148 32.4847 101.198 32.1148C100.248 31.7449 99.4365 31.1538 98.7659 30.3416C98.0963 29.5294 97.5637 28.4921 97.1742 27.2376C96.7847 25.9791 96.5915 24.4763 96.5915 22.7263V9.3382L96.5874 9.34222V9.34322Z" fill="black"/>
<path d="M129.077 24.7095C129.2 25.8152 129.646 26.6445 130.412 27.1953C131.173 27.7502 132.339 28.0206 133.899 28.0206C134.399 28.0206 134.863 27.9753 135.302 27.8809C135.738 27.7904 136.119 27.6597 136.449 27.4888C136.78 27.322 137.045 27.0968 137.248 26.8214C137.45 26.546 137.55 26.2213 137.55 25.8564C137.55 25.4553 137.463 25.1568 137.294 24.9588C137.119 24.7608 136.895 24.5758 136.615 24.4039C136.335 24.237 136.032 24.1064 135.702 24.0119C135.372 23.9174 134.991 23.8269 134.555 23.7365L130.343 23.0459C129.44 22.8921 128.531 22.6629 127.627 22.3553C126.723 22.0488 125.911 21.6427 125.195 21.133C124.48 20.6234 123.892 19.969 123.443 19.1528C122.989 18.3406 122.764 17.3666 122.764 16.2337C122.764 14.7903 123.067 13.581 123.677 12.602C124.287 11.6229 125.081 10.8379 126.063 10.2559C127.044 9.67388 128.146 9.25873 129.362 9.01548C130.577 8.7672 131.807 8.64557 133.055 8.64557C135.023 8.64557 136.675 8.86671 138.016 9.31301C139.356 9.75932 140.457 10.3504 141.314 11.0862C142.172 11.822 142.819 12.6834 143.256 13.6625C143.691 14.6415 143.99 15.6698 144.146 16.7484H137.172C137.08 15.8005 136.704 15.0567 136.048 14.5149C135.396 13.9781 134.392 13.7117 133.051 13.7117C132.583 13.7117 132.152 13.7429 131.762 13.8022C131.373 13.8655 131.019 13.9871 130.707 14.1721C130.395 14.357 130.143 14.5872 129.959 14.8627C129.771 15.1381 129.679 15.4628 129.679 15.8276C129.679 16.1031 129.747 16.3644 129.889 16.6077C130.032 16.8559 130.22 17.0449 130.454 17.1806C130.688 17.3203 130.959 17.4329 131.275 17.5234C131.586 17.6139 131.931 17.7083 132.302 17.7988L136.702 18.5788C137.638 18.7326 138.564 18.9538 139.487 19.2463C140.405 19.5398 141.239 19.9499 141.992 20.4867C142.745 21.0235 143.327 21.6819 143.744 22.4669C144.161 23.252 144.377 24.2079 144.377 25.3407C144.377 26.6897 144.106 27.8577 143.56 28.8368C143.014 29.8158 142.266 30.623 141.316 31.2553C140.367 31.8825 139.257 32.3519 137.995 32.6585C136.734 32.9651 135.366 33.1189 133.898 33.1189C131.962 33.1189 130.287 32.8977 128.864 32.4514C127.442 32.0051 126.258 31.4 125.309 30.6331C124.359 29.8661 123.625 28.9725 123.111 27.9402C122.592 26.9159 122.276 25.8333 122.152 24.6964H129.08L129.076 24.7095H129.077Z" fill="black"/>
<path d="M13.9346 26.4636L15.5774 9.3382H23.5338L25.1766 26.4636L26.0987 26.6395C26.9799 24.614 29.8699 18.1266 30.4802 9.34222H39.0918L32.632 32.351H21.4187L19.8086 20.8466H19.322L17.7119 32.351H6.48327L0 9.34322H8.63004C9.24034 18.1316 12.1262 24.614 13.0115 26.6405L13.9336 26.4646L13.9346 26.4636Z" fill="black"/>
</g>
<defs>
<clipPath id="clip0_2559_4">
<rect width="144.378" height="33.1189" fill="white"/>
</clipPath>
</defs>
</svg>
